<svg xmlns="http://www.w3.org/2000/svg" xml:space="preserve" style="fill-rule:evenodd;clip-rule:evenodd;stroke-miterlimit:2" viewBox="0 0 512 256">
  <path d="M.074 0h.479v-.128H.226V-.71H.074V0Z" style="fill:#00ff6d;fill-rule:nonzero" transform="matrix(116.667 0 -24.798 116.667 109.149 117.333)"/>
  <path d="M.074 0h.502v-.128h-.35v-.165h.33v-.126h-.33v-.163h.342V-.71H.074V0Z" style="fill:#00ff6d;fill-rule:nonzero" transform="matrix(116.667 0 -24.798 116.667 171.799 117.333)"/>
  <path d="M.275 0h.179l.257-.71H.554l-.189.539L.176-.71H.019L.275 0Z" style="fill:#00ff6d;fill-rule:nonzero" transform="matrix(116.667 0 -24.798 116.667 242.965 117.333)"/>
  <path d="M.074 0h.502v-.128h-.35v-.165h.33v-.126h-.33v-.163h.342V-.71H.074V0Z" style="fill:#00ff6d;fill-rule:nonzero" transform="matrix(116.667 0 -24.798 116.667 322.649 117.333)"/>
  <path d="M.074 0h.152v-.293h.269V0h.152v-.71H.495v.289H.226V-.71H.074V0Z" style="fill:#00ff6d;fill-rule:nonzero" transform="matrix(116.667 0 -24.798 116.667 33.199 221.5)"/>
  <path d="M.074 0h.502v-.128h-.35v-.165h.33v-.126h-.33v-.163h.342V-.71H.074V0Z" style="fill:#00ff6d;fill-rule:nonzero" transform="matrix(116.667 0 -24.798 116.667 113.349 221.5)"/>
  <path d="M.074 0h.479v-.128H.226V-.71H.074V0Z" style="fill:#00ff6d;fill-rule:nonzero" transform="matrix(116.667 0 -24.798 116.667 183.582 221.5)"/>
  <path d="M.074 0h.152v-.245h.132c.17 0 .273-.089.273-.233C.631-.622.528-.71.358-.71H.074V0Zm.152-.373v-.209h.123c.08 0 .126.035.126.104 0 .069-.046.105-.126.105H.226Z" style="fill:#00ff6d;fill-rule:nonzero" transform="matrix(116.667 0 -24.798 116.667 246.232 221.5)"/>
  <path d="M.074 0h.502v-.128h-.35v-.165h.33v-.126h-.33v-.163h.342V-.71H.074V0Z" style="fill:#00ff6d;fill-rule:nonzero" transform="matrix(116.667 0 -24.798 116.667 319.965 221.5)"/>
  <path d="M.074 0h.152v-.26h.151c.072 0 .098.026.102.08L.492 0h.155L.629-.204C.623-.276.586-.316.515-.326A.174.174 0 0 0 .64-.498C.64-.627.541-.71.385-.71H.074V0Zm.152-.387v-.195h.137c.079 0 .121.034.121.097 0 .062-.043.098-.116.098H.226Z" style="fill:#00ff6d;fill-rule:nonzero" transform="matrix(116.667 0 -24.798 116.667 389.849 221.5)"/>
  <path d="M-61.856 137.925h55.869v-14.919h-38.15v-67.9h-17.719v82.819Zm62.65 0h58.552v-14.919H18.513v-19.265h38.5V89.056h-38.5V70.025h39.9V55.106H.794v82.819Zm94.612 0h20.879l29.978-82.819H127.95l-22.046 62.872-22.046-62.872H65.544l29.862 82.819Zm56.238 0h58.552v-14.919h-40.833v-19.265h38.5V89.056h-38.5V70.025h39.9V55.106h-57.619v82.819Z" style="fill:none;fill-rule:nonzero;stroke:#000;stroke-width:9.26px" transform="matrix(1 0 -.213 1 199.963 -20.599)"/>
  <path d="M-137.806 242.091h17.719v-34.183h31.398v34.183h17.719v-82.818h-17.719v33.716h-31.398v-33.716h-17.719v82.818Zm80.15 0H.896v-14.918h-40.833v-19.265h38.5v-14.685h-38.5v-19.032h39.9v-14.918h-57.619v82.818Zm70.234 0h55.868v-14.918h-38.15v-67.9H12.578v82.818Zm62.65 0h17.718v-28.583h15.408c19.835 0 31.842-10.373 31.842-27.176 0-16.803-12.007-27.059-31.842-27.059H75.228v82.818Zm17.718-43.502v-24.398h14.358c9.338 0 14.707 4.086 14.707 12.141s-5.369 12.257-14.707 12.257H92.946Zm56.015 43.502h58.552v-14.918H166.68v-19.265h38.5v-14.685h-38.5v-19.032h39.9v-14.918h-57.619v82.818Zm69.883 0h17.719v-30.333h17.625c8.404 0 11.439 3.033 11.906 9.333l1.516 21h18.07l-2.099-23.8c-.7-8.398-5.013-13.06-13.29-14.225 8.627-2.681 14.572-10.029 14.572-20.068 0-15.052-11.541-24.725-29.741-24.725h-36.278v82.818Zm17.719-45.135v-22.765h15.991c9.221 0 14.124 3.97 14.124 11.324 0 7.238-5.019 11.441-13.54 11.441h-16.575Z" style="fill:none;fill-rule:nonzero;stroke:#000;stroke-width:9.26px" transform="matrix(1 0 -.213 1 222.105 -20.599)"/>
  <path d="M.074 0h.479v-.128H.226V-.71H.074V0Z" style="fill:#fff;fill-rule:nonzero" transform="matrix(116.667 0 -24.798 116.667 100.149 117.333)"/>
  <path d="M.074 0h.502v-.128h-.35v-.165h.33v-.126h-.33v-.163h.342V-.71H.074V0Z" style="fill:#fff;fill-rule:nonzero" transform="matrix(116.667 0 -24.798 116.667 162.799 117.333)"/>
  <path d="M.275 0h.179l.257-.71H.554l-.189.539L.176-.71H.019L.275 0Z" style="fill:#fff;fill-rule:nonzero" transform="matrix(116.667 0 -24.798 116.667 233.965 117.333)"/>
  <path d="M.074 0h.502v-.128h-.35v-.165h.33v-.126h-.33v-.163h.342V-.71H.074V0Z" style="fill:#fff;fill-rule:nonzero" transform="matrix(116.667 0 -24.798 116.667 313.649 117.333)"/>
  <path d="M.074 0h.152v-.293h.269V0h.152v-.71H.495v.289H.226V-.71H.074V0Z" style="fill:#fff;fill-rule:nonzero" transform="matrix(116.667 0 -24.798 116.667 24.199 221.5)"/>
  <path d="M.074 0h.502v-.128h-.35v-.165h.33v-.126h-.33v-.163h.342V-.71H.074V0Z" style="fill:#fff;fill-rule:nonzero" transform="matrix(116.667 0 -24.798 116.667 104.349 221.5)"/>
  <path d="M.074 0h.479v-.128H.226V-.71H.074V0Z" style="fill:#fff;fill-rule:nonzero" transform="matrix(116.667 0 -24.798 116.667 174.582 221.5)"/>
  <path d="M.074 0h.152v-.245h.132c.17 0 .273-.089.273-.233C.631-.622.528-.71.358-.71H.074V0Zm.152-.373v-.209h.123c.08 0 .126.035.126.104 0 .069-.046.105-.126.105H.226Z" style="fill:#fff;fill-rule:nonzero" transform="matrix(116.667 0 -24.798 116.667 237.232 221.5)"/>
  <path d="M.074 0h.502v-.128h-.35v-.165h.33v-.126h-.33v-.163h.342V-.71H.074V0Z" style="fill:#fff;fill-rule:nonzero" transform="matrix(116.667 0 -24.798 116.667 310.965 221.5)"/>
  <path d="M.074 0h.152v-.26h.151c.072 0 .098.026.102.08L.492 0h.155L.629-.204C.623-.276.586-.316.515-.326A.174.174 0 0 0 .64-.498C.64-.627.541-.71.385-.71H.074V0Zm.152-.387v-.195h.137c.079 0 .121.034.121.097 0 .062-.043.098-.116.098H.226Z" style="fill:#fff;fill-rule:nonzero" transform="matrix(116.667 0 -24.798 116.667 380.849 221.5)"/>
</svg>
